<svg height="512pt" viewBox="-41 0 511 512" width="512pt" xmlns="http://www.w3.org/2000/svg" xmlns:xlink="http://www.w3.org/1999/xlink"><radialGradient id="radial0" cx="158.6381" cy="196.3607" gradientTransform="matrix(.73718 .681562 -.613195 .663291 121.816392 -41.22122)" gradientUnits="userSpaceOnUse" r="302.1131"><stop offset="0" stop-color="#d9eafc"/><stop offset=".4619" stop-color="#d7e8fb"/><stop offset=".6305" stop-color="#d0e2f9"/><stop offset=".751" stop-color="#c4d8f4"/><stop offset=".8487" stop-color="#b3c9ee"/><stop offset=".9315" stop-color="#9eb6e6"/><stop offset="1" stop-color="#85a0dd"/></radialGradient><linearGradient id="lg1"><stop offset="0" stop-color="#ffb2bc"/><stop offset="1" stop-color="#ff90a4"/></linearGradient><linearGradient id="linear0" gradientUnits="userSpaceOnUse" x1="293.1394655964" x2="360.5484106396" xlink:href="#lg1" y1="333.2307251458" y2="366.9351976674"/><linearGradient id="lg2"><stop offset="0" stop-color="#ffe548"/><stop offset=".5034" stop-color="#ffe346"/><stop offset=".6872" stop-color="#ffdd3f"/><stop offset=".8186" stop-color="#ffd233"/><stop offset=".9243" stop-color="#ffc223"/><stop offset="1" stop-color="#ffb211"/></linearGradient><linearGradient id="linear1" gradientUnits="userSpaceOnUse" x1="225.7748939056" x2="335.3147307774" xlink:href="#lg2" y1="387.9456788522" y2="434.2894289616"/><linearGradient id="linear2" gradientUnits="userSpaceOnUse" x1="218.076518833" x2="380.9816366744" xlink:href="#lg2" y1="208.0740784264" y2="311.9964697472"/><linearGradient id="linear3" gradientUnits="userSpaceOnUse" x1="160.4415575974" x2="258.7462021906" xlink:href="#lg1" y1="73.0299043212" y2="200.8258619786"/><path d="m429.675781 297.410156c0 118.515625-96.074219 214.589844-214.585937 214.589844-118.515625 0-214.589844-96.074219-214.589844-214.589844 0-118.511718 96.074219-297.410156 214.589844-297.410156 118.511718 0 214.585937 178.898438 214.585937 297.410156zm0 0" fill="url(#radial0)"/><path d="m242.132812 342.445312c68.621094-23.898437 132.226563-52.980468 184.449219-84.066406-2.996093-19.921875-8.117187-40.6875-15.085937-61.414062-51.15625 32.542968-116.980469 63.453125-189.171875 88.597656-78.371094 27.292969-155.089844 44.609375-218.53125 49.476562 3.671875 20.757813 10.335937 40.480469 19.515625 58.71875 65.449218-6.648437 141.6875-24.445312 218.824218-51.3125zm0 0" fill="url(#linear0)"/><path d="m261.367188 401.085938c-70.28125 24.476562-139.242188 40.941406-198.484376 47.585937 21.074219 21.214844 46.542969 38.039063 74.945313 48.992187 45.738281-9.214843 94.367187-22.628906 143.359375-39.683593 41.097656-14.316407 80.394531-30.492188 116.523438-47.839844 15.460937-24.984375 25.933593-53.378906 30.027343-83.796875-47.292969 27.417969-104.496093 53.199219-166.371093 74.742188zm0 0" fill="url(#linear1)"/><path d="m203.082031 226.917969c69.097657-24.066407 133.105469-53.386719 185.53125-84.714844-9.117187-18.097656-19.558593-35.503906-31.117187-51.550781-48.753906 29.140625-108.882813 56.621094-174.226563 79.378906-59.226562 20.628906-117.507812 35.558594-169.828125 43.722656-6.148437 21.371094-10.242187 42.527344-11.984375 62.496094 61.433594-7.820312 131.148438-24.789062 201.625-49.332031zm0 0" fill="url(#linear2)"/><path d="m164.03125 111.386719c55.457031-19.316407 107.632812-42.019531 153.179688-66.425781-18.367188-16.664063-38.351563-29.613282-59.457032-37.25-34.898437 16.914062-73.226562 32.753906-113.535156 46.792968-19.449219 6.769532-38.789062 12.925782-57.855469 18.429688-18.21875 21.960937-34.1875 47.410156-47.257812 74.226562 40.273437-8.945312 82.460937-20.984375 124.925781-35.773437zm0 0" fill="url(#linear3)"/></svg>