<svg height="512pt" viewBox="0 -13 512 511" width="512pt" xmlns="http://www.w3.org/2000/svg" xmlns:xlink="http://www.w3.org/1999/xlink"><radialGradient id="radial0" cx="112.6354" cy="201.1884" gradientTransform="matrix(.73718 .681562 -.613195 .663291 153.416383 -21.630347)" gradientUnits="userSpaceOnUse" r="284.121"><stop offset="0" stop-color="#ffe548"/><stop offset=".5034" stop-color="#ffe346"/><stop offset=".6872" stop-color="#ffdd3f"/><stop offset=".8186" stop-color="#ffd233"/><stop offset=".9243" stop-color="#ffc223"/><stop offset="1" stop-color="#ffb211"/></radialGradient><linearGradient id="linear0" gradientUnits="userSpaceOnUse" x1="105.1586208716" x2="279.9139336088" y1="132.4664560518" y2="307.221768789"><stop offset="0" stop-color="#ffb2bc"/><stop offset="1" stop-color="#ff90a4"/></linearGradient><linearGradient id="linear1" gradientUnits="userSpaceOnUse" x1="406.1570247166" x2="216.8209496358" y1="389.9751596412" y2="200.6389841682"><stop offset="0" stop-color="#ff9517" stop-opacity="0"/><stop offset=".3074" stop-color="#ee8421" stop-opacity=".305882"/><stop offset=".6784" stop-color="#e07728" stop-opacity=".678431"/><stop offset="1" stop-color="#db722b"/></linearGradient><linearGradient id="linear2" gradientUnits="userSpaceOnUse" x1="420.7992270866" x2="457.695067254" y1="121.627712571" y2="158.5235527384"><stop offset="0" stop-color="#af9ce6"/><stop offset="1" stop-color="#8779b3"/></linearGradient><linearGradient id="lg1"><stop offset="0" stop-color="#fffcf8"/><stop offset=".3107" stop-color="#fefaef"/><stop offset=".818" stop-color="#fdf3d6"/><stop offset="1" stop-color="#fcf0cc"/></linearGradient><linearGradient id="linear3" gradientUnits="userSpaceOnUse" x1="201.0535514882" x2="337.7530925792" xlink:href="#lg1" y1="221.182641623" y2="357.8820823218"/><linearGradient id="lg2"><stop offset="0" stop-color="#f2e9dc" stop-opacity="0"/><stop offset=".6804" stop-color="#cfa37b" stop-opacity=".682353"/><stop offset="1" stop-color="#c08552"/></linearGradient><linearGradient id="linear4" gradientUnits="userSpaceOnUse" x1="269.0206771634" x2="270.2604204412" xlink:href="#lg2" y1="260.3811776818" y2="433.9564805002"/><linearGradient id="linear5" gradientUnits="userSpaceOnUse" x1="303.152318496" x2="146.9347266654" xlink:href="#lg2" y1="284.9968431608" y2="456.0925590314"/><linearGradient id="linear6" gradientUnits="userSpaceOnUse" x1="398.3589601894" x2="372.5621804774" xlink:href="#lg1" y1="167.5070483632" y2="193.3038280752"/><linearGradient id="linear7" gradientUnits="userSpaceOnUse" x1="411.1752292258" x2="317.7039671016" xlink:href="#lg2" y1="189.4661354458" y2="202.4621065202"/><linearGradient id="linear8" gradientTransform="matrix(.709873 .709873 -.709873 .709873 3919.446337 861.075924)" gradientUnits="userSpaceOnUse" x1="-2967.9692" x2="-2969.5703" y1="2033.6659" y2="2073.3496"><stop offset="0" stop-color="#ffe548"/><stop offset="1" stop-color="#ffb211"/></linearGradient><path d="m405.863281 282.882812c0 111.453126-90.351562 201.804688-201.808593 201.804688-111.453126 0-201.808594-90.351562-201.808594-201.804688 0-111.457031 90.355468-279.703124 201.808594-279.703124 111.457031 0 201.808593 168.246093 201.808593 279.703124zm0 0" fill="url(#radial0)"/><path d="m336.527344 239.226562v-22.679687c0-14.382813-11.660156-26.042969-26.039063-26.042969-14.382812 0-26.039062 11.660156-26.039062 26.042969 0 20.605469-16.707031 37.3125-37.3125 37.3125h-24.570313c-22.863281 0-41.394531 18.53125-41.394531 41.394531v27.410156c0 19.769532-16.027344 35.792969-35.792969 35.792969s-35.792968-16.023437-35.792968-35.792969v-49.46875c0-10.679687-8.65625-19.335937-19.335938-19.335937-10.675781 0-19.332031 8.65625-19.332031 19.335937v25.152344c0 19.558594-15.855469 35.410156-35.414063 35.410156-19.441406 0-35.246094-15.675781-35.410156-35.117187-.0625-7.230469-.09375-13.261719-.09375-15.324219 0-19.207031 2.652344-40.070312 7.609375-61.484375 24.140625-104.25 102.949219-221.332031 196.445313-221.332031 85.113281 0 158.058593 97.027344 188.667968 193.074219 4.183594 13.140625 7.578125 26.257812 10.101563 39.109375 4.070312 20.714844-11.71875 40.011718-32.828125 40.011718-18.484375 0-33.46875-14.984374-33.46875-33.46875zm0 0" fill="url(#linear0)"/><path d="m405.863281 282.882812c0-41.175781-12.332031-90.105468-33.503906-135.433593-1.476563.996093-2.808594 2.273437-3.890625 3.847656l-19.09375 27.699219c-5.570312-1.351563-11.6875.128906-16.039062 4.480468l-.949219.949219c-.78125.78125-1.464844 1.625-2.058594 2.507813-36.675781-13.273438-82.0625 6.402344-91.828125 49.886718-5.976562 26.605469-21.691406 51.085938-46.039062 67.613282-6.664063 4.519531-13.640626 8.222656-20.816407 11.125-5.363281 2.171875-9.492187 5.976562-12.101562 10.554687-.25.4375-.484375.886719-.703125 1.335938-.035156.074219-.070313.144531-.105469.214843-.1875.402344-.367187.804688-.535156 1.210938-.03125.074219-.0625.144531-.089844.21875-.574219 1.429688-1.007813 2.90625-1.300781 4.410156-.019532.097656-.035156.199219-.054688.296875-.070312.398438-.132812.804688-.183594 1.207031-.015624.113282-.03125.226563-.042968.339844-.050782.429688-.085938.863282-.113282 1.296875-.003906.070313-.011718.136719-.011718.207031-.027344.515626-.039063 1.035157-.027344 1.554688v.007812.054688c.011719.472656.035156.945312.074219 1.421875.011719.132813.027343.269531.039062.402344.035157.371093.082031.738281.132813 1.105469.023437.152343.046875.304687.070312.457031.0625.375.136719.75.214844 1.125.027344.125.050781.25.082031.375.117188.5.246094.996093.398438 1.488281.011719.035156.023437.070312.035156.105469.136719.449219.292969.894531.460937 1.339843.058594.152344.121094.300782.179688.453126.136719.332031.277344.664062.425781.996093.074219.164063.152344.328125.234375.496094.160156.328125.328125.652344.503906.980469.054688.101562.105469.210937.160157.3125.023437.042968.054687.082031.078125.125.261718.460937.539062.921875.835937 1.371094.148438.226562.300781.453124.453125.679687 2.699219 3.972656 5.816406 7.570313 9.273438 10.824219.925781.984375 1.882812 1.9375 2.867187 2.863281l105.257813 105.261719c74.792968-29.539063 127.710937-102.476563 127.710937-187.769532zm0 0" fill="url(#linear1)"/><path d="m512 50.964844v10.90625c0 17.503906-6.953125 34.289062-19.328125 46.664062l-126.210937 126.210938-35.347657-35.339844 157.949219-157.941406c8.464844-8.464844 22.9375-2.46875 22.9375 9.5zm0 0" fill="url(#linear2)"/><path d="m364 213.742188c-.515625-.761719-1.039062-1.515626-1.574219-2.257813-34.601562-48.289063-110.90625-32.628906-123.925781 25.335937-5.976562 26.605469-21.691406 51.085938-46.039062 67.613282-6.664063 4.519531-13.640626 8.222656-20.816407 11.125-14.121093 5.714844-19.738281 22.753906-11.34375 35.464844.148438.226562.300781.453124.453125.679687 32.894532 48.464844 126.59375 42.25 175.058594 9.351563 48.464844-32.894532 61.085938-98.851563 28.1875-147.3125zm0 0" fill="url(#linear3)"/><path d="m364 213.742188c-.515625-.761719-1.039062-1.515626-1.574219-2.257813-6.300781-8.792969-13.988281-15.457031-22.421875-20.140625l-10.238281 28.582031c-4.316406 12.054688-15.191406 20.542969-27.933594 21.804688-29.183593 2.894531-55.707031 18.214843-72.792969 42.050781-14.105468 19.679688-34.753906 33.691406-58.25 39.535156l-11.246093 2.796875c-4.257813 7.476563-4.449219 17.023438.757812 24.910157.148438.226562.300781.453124.453125.675781 32.894532 48.464843 126.59375 42.253906 175.058594 9.355469 48.464844-32.894532 61.085938-98.851563 28.1875-147.3125zm0 0" fill="url(#linear4)"/><path d="m364.089844 213.871094-12.925782 25.636718c-17.558593 34.820313-50.871093 59-89.417968 64.898438-10.730469 1.644531-20.613282 6.792969-28.105469 14.640625l-4.933594 5.167969c-18.625 19.511718-49.496093 20.359375-69.164062 1.898437-4.257813 7.476563-4.445313 17.023438.757812 24.910157.148438.226562.300781.453124.453125.675781 32.898438 48.464843 126.597656 42.253906 175.0625 9.355469 48.417969-32.867188 61.054688-98.730469 28.273438-147.183594zm0 0" fill="url(#linear5)"/><path d="m369.207031 228.667969-32.007812-32.007813 31.269531-45.363281c5.230469-7.589844 16.058594-8.578125 22.578125-2.0625l25.582031 25.585937c6.519532 6.515626 5.53125 17.347657-2.058594 22.578126zm0 0" fill="url(#linear6)"/><path d="m416.628906 174.820312-11.90625-11.910156c-6.519531-6.515625-17.347656-5.53125-22.578125 2.058594l-31.269531 45.363281 18.332031 18.335938 45.363281-31.269531c7.589844-5.230469 8.578126-16.0625 2.058594-22.578126zm0 0" fill="url(#linear7)"/><path d="m357.402344 233.480469-25.015625-25.015625c-6.636719-6.636719-6.636719-17.402344 0-24.039063l.949219-.949219c6.640624-6.640624 17.402343-6.640624 24.039062 0l25.015625 25.015626c6.640625 6.636718 6.640625 17.398437 0 24.039062l-.949219.949219c-6.640625 6.636719-17.402344 6.636719-24.039062 0zm0 0" fill="url(#linear8)"/></svg>